<?xml version="1.0" encoding="UTF-8"?>
<!-- Created with Inkscape (http://www.inkscape.org/) -->
<svg width="128" height="128" version="1.1" viewBox="0 0 128 128" xmlns="http://www.w3.org/2000/svg">
 <defs>
  <filter id="filter4134" x="-.041463" y="-.043553" width="1.0707" height="1.0743" color-interpolation-filters="sRGB">
   <feFlood flood-color="rgb(0,0,0)" flood-opacity=".49804" result="flood"/>
   <feComposite in="flood" in2="SourceGraphic" operator="out" result="composite1"/>
   <feGaussianBlur in="composite1" result="blur" stdDeviation="1"/>
   <feOffset dx="-1" dy="-1" result="offset"/>
   <feComposite in="offset" in2="SourceGraphic" operator="atop" result="composite2"/>
  </filter>
  <filter id="filter4172" x="-.023077" y="-.023077" width="1.0558" height="1.0558" color-interpolation-filters="sRGB">
   <feFlood flood-color="rgb(0,0,0)" flood-opacity=".49804" result="flood"/>
   <feComposite in="flood" in2="SourceGraphic" operator="in" result="composite1"/>
   <feGaussianBlur in="composite1" result="blur" stdDeviation="1"/>
   <feOffset dx="1" dy="1" result="offset"/>
   <feComposite in="SourceGraphic" in2="offset" result="composite2"/>
  </filter>
 </defs>
 <g>
  <path id="Quadrat" transform="matrix(.87432 0 0 .87432 7.6066 7.6066)" x="12" y="12" width="104" height="104" d="m32 12h64a20 20 45 0 1 20 20v64a20 20 135 0 1-20 20h-64a20 20 45 0 1-20-20v-64a20 20 135 0 1 20-20z" fill="#00adb5" filter="url(#filter4172)"/>
  <path id="Stern" transform="matrix(.8656 0 0 .83925 9.0341 11.297)" d="m64 20.919c2.8608 0 10.347 23.973 12.661 25.654s27.427 1.393 28.311 4.1138-19.602 17.248-20.486 19.969c-0.88405 2.7208 7.1506 26.515 4.8361 28.197-2.3145 1.6816-22.461-13.313-25.322-13.313s-23.008 14.994-25.322 13.313c-2.3145-1.6816 5.7202-25.476 4.8361-28.197-0.88405-2.7208-21.37-17.248-20.486-19.969s25.997-2.4323 28.311-4.1138 9.8003-25.654 12.661-25.654z" fill="#fff" filter="url(#filter4134)"/>
 </g>
</svg>
